<svg width="14" height="8" viewBox="0 0 14 8" fill="none" xmlns="http://www.w3.org/2000/svg">
<path d="M0.201404 0.203331C0.44701 -0.0446166 0.832465 -0.0668409 1.10138 0.142385L1.17164 0.20519L7.15214 6.31022C7.42008 6.5835 7.41916 7.02502 7.15031 7.29644C7.0168 7.43122 6.84123 7.5 6.66657 7.5C6.5195 7.5 6.37306 7.45223 6.25107 7.35724L6.181 7.29458L0.20049 1.18954C-0.0674438 0.916266 -0.0665297 0.474748 0.201404 0.203331ZM12.1608 0.205283C12.4287 -0.0689233 12.8631 -0.0670643 13.131 0.203424C13.3774 0.452223 13.3988 0.843954 13.1949 1.11801L13.1337 1.18964L9.16229 5.24417C9.02878 5.38081 8.85229 5.44959 8.67672 5.44959C8.50205 5.44959 8.32648 5.38081 8.19297 5.24603C7.94653 4.99723 7.92522 4.6055 8.12905 4.33144L8.19023 4.25981L12.1608 0.205283Z" fill="#00B4DA"/>
</svg>
