<svg width="20" height="20" viewBox="0 0 20 20" fill="none" xmlns="http://www.w3.org/2000/svg">
<path d="M10.0056 1.66669C11.3537 1.66669 12.6967 1.99924 13.89 2.62838C17.9527 4.772 19.5151 9.82126 17.3729 13.8853C15.9118 16.6566 13.035 18.3334 9.99608 18.3334C9.40238 18.3334 8.80281 18.2695 8.20618 18.1373C7.87007 18.0625 7.65798 17.7292 7.7321 17.393C7.80622 17.0567 8.13866 16.846 8.47697 16.9187C11.5805 17.6088 14.7846 16.1193 16.2692 13.3032C18.0907 9.84843 16.7624 5.55457 13.308 3.73249C12.2938 3.19732 11.1519 2.91469 10.0049 2.91469C6.0919 2.91469 2.91425 6.09268 2.91425 9.99892C2.91278 11.1368 3.19019 12.2695 3.71637 13.276L3.87635 13.5888C4.0723 13.9558 4.11559 14.4117 3.98863 14.8243C3.81324 15.2868 3.6672 15.7368 3.54685 16.1846C4.01505 16.0436 4.58674 15.8359 4.99991 15.6854L5.16943 15.6245C5.49013 15.5048 5.85046 15.6744 5.96788 15.9989C6.0853 16.3226 5.91724 16.6809 5.5936 16.7976L5.42628 16.8585C4.80837 17.0824 3.96295 17.39 3.392 17.5177C3.34356 17.528 3.29146 17.5346 3.24376 17.5332C2.86068 17.5332 2.62731 17.3783 2.49888 17.2476C2.30147 17.0472 2.20754 16.766 2.21854 16.4122C2.22001 16.3718 2.22515 16.3299 2.23469 16.2896C2.38293 15.6582 2.57594 15.0284 2.80931 14.4183C2.82619 14.3588 2.81591 14.2509 2.76821 14.1606L2.60749 13.8486C1.99178 12.6696 1.66521 11.3357 1.66667 9.99819C1.66667 5.40408 5.40353 1.66669 9.99608 1.66669H10.0056ZM9.99638 9.00793C10.5431 9.00793 10.9871 9.45281 10.9871 9.99899C10.9871 10.5452 10.5431 10.9901 9.99638 10.9901C9.44964 10.9901 9.00565 10.5452 9.00565 9.99899C9.00565 9.45281 9.44964 9.00793 9.99638 9.00793ZM13.6657 9.00793C14.2125 9.00793 14.6564 9.45281 14.6564 9.99899C14.6564 10.5452 14.2125 10.9901 13.6657 10.9901C13.119 10.9901 12.675 10.5452 12.675 9.99899C12.675 9.45281 13.119 9.00793 13.6657 9.00793ZM6.32696 9.00823C6.87369 9.00823 7.31768 9.45237 7.31768 9.99929C7.31768 10.5455 6.87369 10.9896 6.32696 10.9896C5.78023 10.9896 5.33624 10.5455 5.33624 9.99929C5.33624 9.45237 5.78023 9.00823 6.32696 9.00823Z" fill="#0097B7"/>
</svg>
