<svg width="18" height="18" viewBox="0 0 18 18" fill="none" xmlns="http://www.w3.org/2000/svg">
<path d="M17.3338 9.00002C17.3338 13.595 13.5954 17.3334 9.00042 17.3334C4.40542 17.3334 0.667089 13.595 0.667089 9.00002C0.667089 4.40502 4.40542 0.666687 9.00042 0.666687C11.6071 0.666687 14.0146 1.85252 15.6063 3.91835C15.8104 4.18335 15.7604 4.56502 15.4963 4.76835C15.2313 4.97335 14.8513 4.92252 14.6454 4.65835C13.2863 2.89085 11.2279 1.87835 9.00042 1.87835C5.07376 1.87835 1.87876 5.07252 1.87876 9.00002C1.87876 12.9267 5.07376 16.1209 9.00042 16.1209C12.9271 16.1209 16.1221 12.9267 16.1221 9.00002C16.1221 8.63585 16.0946 8.27169 16.0404 7.91752C15.9904 7.58752 16.2171 7.27835 16.5479 7.22752C16.8804 7.17252 17.1879 7.40335 17.2388 7.73419C17.3021 8.14919 17.3338 8.57502 17.3338 9.00002ZM10.6453 5.66602C10.8886 5.91102 10.8886 6.30602 10.6436 6.54935L8.18276 8.99935L10.6436 11.4494C10.8886 11.6927 10.8886 12.0885 10.6453 12.3335C10.4019 12.5777 10.0061 12.5785 9.76109 12.3352L6.85609 9.44185C6.73776 9.32519 6.67192 9.16602 6.67192 8.99935C6.67192 8.83352 6.73776 8.67435 6.85609 8.55685L9.76109 5.66435C10.0061 5.42019 10.4019 5.42102 10.6453 5.66602Z" fill="#0097B7"/>
</svg>
