<svg width="20" height="20" viewBox="0 0 20 20" fill="none" xmlns="http://www.w3.org/2000/svg">
<path d="M10.0277 1.66669C13.9331 1.68203 17.0986 4.86833 17.0833 8.76862V8.84608C17.0305 11.6334 15.3548 13.9464 13.9587 15.3955C13.5613 15.8099 13.1384 16.2075 12.7023 16.5787C12.441 16.8016 12.0488 16.7709 11.8256 16.51C11.6025 16.2484 11.6339 15.8567 11.8952 15.6338C12.2991 15.2896 12.692 14.9198 13.0616 14.5346C14.3041 13.2455 15.7939 11.2073 15.8392 8.82343C15.8517 5.54871 13.243 2.92147 10.0226 2.90832H9.99994C6.79051 2.90832 4.17306 5.50997 4.16062 8.71746C4.2155 10.3018 4.75114 11.808 5.71045 13.0716C6.83002 14.5624 8.5284 16.1409 10.1426 17.1918C10.4309 17.3789 10.5122 17.7633 10.3241 18.0513C10.2056 18.234 10.0058 18.3334 9.80236 18.3334C9.68602 18.3334 9.56894 18.3012 9.46357 18.2325C7.73519 17.1078 5.91607 15.4167 4.71675 13.8199C3.60376 12.3532 2.98105 10.6029 2.91666 8.76058C2.93202 4.82156 6.10706 1.66669 9.99994 1.66669H10.0277ZM9.99774 6.15286C11.4839 6.15286 12.6935 7.36015 12.6935 8.84513C12.6935 10.3294 11.4839 11.5367 9.99774 11.5367C8.51157 11.5367 7.302 10.3294 7.302 8.84513C7.302 8.50166 7.58079 8.22395 7.92398 8.22395C8.26717 8.22395 8.54596 8.50166 8.54596 8.84513C8.54596 9.6439 9.19721 10.295 9.99774 10.295C10.7983 10.295 11.4495 9.6439 11.4495 8.84513C11.4495 8.04564 10.7983 7.39449 9.99774 7.39449C9.65455 7.39449 9.37576 7.11679 9.37576 6.77404C9.37576 6.43056 9.65455 6.15286 9.99774 6.15286Z" fill="#0097B7"/>
</svg>
