<svg width="14" height="16" viewBox="0 0 14 16" fill="none" xmlns="http://www.w3.org/2000/svg">
<path d="M12.7885 6.58625C12.7179 6.51375 12.4512 6.20375 12.2028 5.94875C10.7463 4.345 6.94703 1.72 4.95848 0.91875C4.65648 0.79 3.89296 0.5175 3.48502 0.5C3.09413 0.5 2.72151 0.59 2.36593 0.7725C1.92267 1.0275 1.5671 1.42875 1.37226 1.9025C1.24683 2.23125 1.052 3.215 1.052 3.2325C0.857161 4.30875 0.75 6.0575 0.75 7.99C0.75 9.83125 0.85716 11.5087 1.01668 12.6012C1.03495 12.6187 1.22979 13.8413 1.44289 14.26C1.83378 15.025 2.5973 15.5 3.41439 15.5H3.48502C4.01717 15.4813 5.13626 15.0062 5.13626 14.9887C7.01766 14.1862 10.7293 11.69 12.221 10.0312C12.221 10.0312 12.6411 9.605 12.8238 9.33875C13.1087 8.95625 13.25 8.4825 13.25 8.00875C13.25 7.48 13.0905 6.9875 12.7885 6.58625Z" fill="white"/>
</svg>
